<svg width="32" height="32" viewBox="0 0 32 32" fill="none" xmlns="http://www.w3.org/2000/svg">
<rect x="0.5" y="0.5" width="31" height="31" rx="15.5" fill="#D9D9D9" stroke="#5C3EA3"/>
<path d="M8.06458 14.0771L10.9354 15.2959C11.2604 14.6459 11.608 14.0049 11.9781 13.373C12.3483 12.741 12.741 12.1362 13.1562 11.5584L11.0167 11.125L8.06458 14.0771ZM12.2354 16.2709L15.8375 19.873C16.8667 19.4035 17.8326 18.8709 18.7354 18.275C19.6382 17.6792 20.3694 17.1014 20.9292 16.5417C22.3917 15.0792 23.466 13.5806 24.1521 12.0459C24.8382 10.5112 25.2083 8.77782 25.2625 6.84588C23.3306 6.90005 21.5972 7.27018 20.0625 7.9563C18.5278 8.64241 17.0292 9.71671 15.5667 11.1792C15.0069 11.7389 14.4292 12.4702 13.8333 13.373C13.2375 14.2757 12.7049 15.2417 12.2354 16.2709ZM18.4375 13.6709C18.0764 13.3098 17.8958 12.8629 17.8958 12.3303C17.8958 11.7976 18.0764 11.3507 18.4375 10.9896C18.7986 10.6285 19.2455 10.448 19.7781 10.448C20.3108 10.448 20.7576 10.6285 21.1187 10.9896C21.4799 11.3507 21.6604 11.7976 21.6604 12.3303C21.6604 12.8629 21.4799 13.3098 21.1187 13.6709C20.7576 14.032 20.3108 14.2125 19.7781 14.2125C19.2455 14.2125 18.7986 14.032 18.4375 13.6709ZM18.0312 24.0438L20.9833 21.0917L20.55 18.9521C19.9722 19.3674 19.3674 19.7601 18.7354 20.1303C18.1035 20.5004 17.4625 20.848 16.8125 21.173L18.0312 24.0438ZM26.8604 5.24796C27.0229 7.70352 26.716 9.94241 25.9396 11.9646C25.1632 13.9869 23.8812 15.8917 22.0937 17.6792L22.0396 17.7334L21.9854 17.7875L22.5812 20.7667C22.6354 21.0375 22.6219 21.2994 22.5406 21.5521C22.4594 21.8049 22.3194 22.0306 22.1208 22.2292L17.4896 26.8875L15.1875 21.525L10.5833 16.9209L5.22083 14.6188L9.87917 9.98755C10.0778 9.78893 10.3035 9.649 10.5562 9.56775C10.809 9.4865 11.0708 9.47296 11.3417 9.52713L14.3208 10.123C14.3389 10.1049 14.3569 10.0914 14.375 10.0823C14.3931 10.0733 14.4111 10.0598 14.4292 10.0417C16.2167 8.25421 18.1215 6.96775 20.1437 6.18234C22.166 5.39692 24.4049 5.08546 26.8604 5.24796ZM7.03542 20.198C7.66736 19.566 8.43924 19.2455 9.35104 19.2365C10.2628 19.2275 11.0347 19.5389 11.6667 20.1709C12.2986 20.8028 12.6101 21.5747 12.601 22.4865C12.592 23.3983 12.2715 24.1702 11.6396 24.8021C11.1701 25.2716 10.4434 25.6598 9.45937 25.9667C8.47535 26.2737 6.99931 26.5625 5.03125 26.8334C5.30208 24.8653 5.58646 23.3848 5.88437 22.3917C6.18229 21.3987 6.56597 20.6674 7.03542 20.198ZM8.17292 21.3625C7.92014 21.6334 7.69444 22.0577 7.49583 22.6355C7.29722 23.2132 7.12569 23.9535 6.98125 24.8563C7.88403 24.7118 8.62431 24.5403 9.20208 24.3417C9.77986 24.1431 10.2042 23.9174 10.475 23.6646C10.8181 23.3577 10.9941 22.974 11.0031 22.5136C11.0122 22.0532 10.8542 21.6514 10.5292 21.3084C10.1861 20.9834 9.78437 20.8254 9.32396 20.8344C8.86354 20.8434 8.47986 21.0195 8.17292 21.3625Z" fill="#5C3EA3"/>
</svg>
